# xmcd
#
# Track frame offsets:
#	150
#	19232
#	38316
#	55445
#	75194
#	92930
#	114200
#	131931
#	146691
#	169484
#	186350
#	207875
#
# Disc length: 3092 seconds
#
# Revision: 0
# Processed by: cddbd v1.5.1PL0 Copyright (c) Steve Scherf et al.
# Submitted via: dBpowerAMP V4.0
#
DISCID=a30c120c
DTITLE=Willie Clayton - Full Circle
DYEAR=2005
DGENRE=Blues
TTITLE0=If You Ever Get Lonely (Call Me)
TTITLE1=Stay Together
TTITLE2=All My Love
TTITLE3=Playing Your Game Baby
TTITLE4=Can We Talk
TTITLE5=I'll Take It Good To You
TTITLE6=Take It 2 Da Club
TTITLE7=It's A Feeling
TTITLE8=Meet Me Tonight
TTITLE9=Georgia On My Mind
TTITLE10=Hold Me
TTITLE11=Keep Steppin
EXTD=
EXTT0=
EXTT1=
EXTT2=
EXTT3=
EXTT4=
EXTT5=
EXTT6=
EXTT7=
EXTT8=
EXTT9=
EXTT10=
EXTT11=
PLAYORDER=
